<svg xmlns="http://www.w3.org/2000/svg" viewBox="0 0 72 96" fill="none" aria-hidden="true">
  <ellipse cx="36" cy="90" rx="16" ry="5" fill="#1c140c" opacity="0.3"/>
  <path d="M26 70c0-2 2-3 4-3h3v12c-5 1-7-2-7-9z" fill="#3d2a14"/>
  <path d="M39 67h3c2 0 4 1 4 3 0 7-2 10-7 9V67z" fill="#3d2a14"/>
  <rect x="27" y="52" width="7" height="18" rx="2" fill="#cbb892"/>
  <rect x="38" y="52" width="7" height="18" rx="2" fill="#bfa878"/>
  <path d="M22 30c2-4 7-6 14-6s12 2 14 6l3 8c1 3 0 6-2 8l-3 14H24l-3-14c-2-2-3-5-2-8l3-8z" fill="#6b4a28" stroke="#2a1a0a" stroke-width="1.2"/>
  <rect x="24" y="50" width="24" height="4" rx="1" fill="#3d2a14"/>
  <path d="M48 28c8 10 10 22 8 34" stroke="#5a3d1c" stroke-width="2.2" fill="none" stroke-linecap="round"/>
  <path d="M56 60l2 8m-4-6l3 7m-5-5l2 6" stroke="#8b7355" stroke-width="1.2" stroke-linecap="round"/>
  <rect x="14" y="36" width="3" height="26" rx="1" fill="#5a3d1c"/>
  <path d="M12 36c4-8 10-10 14-4" stroke="#8b5a2b" stroke-width="2" fill="none"/>
  <circle cx="36" cy="22" r="9" fill="#e6c4a0" stroke="#2a1a0a" stroke-width="1.2"/>
  <path d="M26 18c2-7 7-10 13-9 5 1 8 5 8 9H26z" fill="#4a3728" stroke="#2a1a0a" stroke-width="1.2"/>
  <circle cx="33" cy="22" r="1.1" fill="#2a1a0a"/>
  <circle cx="39" cy="22" r="1.1" fill="#2a1a0a"/>
</svg>
