<svg xmlns="http://www.w3.org/2000/svg" viewBox="0 0 72 96" fill="none" aria-hidden="true">
  <ellipse cx="36" cy="90" rx="16" ry="5" fill="#1c140c" opacity="0.3"/>
  <path d="M26 70c0-2 2-3 4-3h3v12c-5 1-7-2-7-9z" fill="#3d2a14"/>
  <path d="M39 67h3c2 0 4 1 4 3 0 7-2 10-7 9V67z" fill="#3d2a14"/>
  <rect x="27" y="52" width="7" height="18" rx="2" fill="#5a6a5a"/>
  <rect x="38" y="52" width="7" height="18" rx="2" fill="#4f5f4f"/>
  <path d="M22 30c2-4 7-6 14-6s12 2 14 6l3 8c1 3 0 6-2 8l-3 14H24l-3-14c-2-2-3-5-2-8l3-8z" fill="#6b7c6b" stroke="#2a1a0a" stroke-width="1.2"/>
  <path d="M22 30c2-4 7-6 14-6s12 2 14 6" stroke="#8b5a2b" stroke-width="3"/>
  <rect x="24" y="50" width="24" height="4" rx="1" fill="#3d2a14"/>
  <circle cx="16" cy="48" r="8" fill="#8b5a2b" stroke="#2a1a0a" stroke-width="1.2"/>
  <circle cx="16" cy="48" r="5" fill="#c9a35a"/>
  <rect x="52" y="34" width="3" height="28" rx="1" fill="#9aa3ad" stroke="#2a1a0a" stroke-width="0.8"/>
  <path d="M50 34h7l-2 4h-3l-2-4z" fill="#c0c8d0" stroke="#2a1a0a" stroke-width="0.8"/>
  <circle cx="36" cy="22" r="9" fill="#e6c4a0" stroke="#2a1a0a" stroke-width="1.2"/>
  <path d="M26 20c1-8 6-12 12-11 5 1 9 5 9 11H26z" fill="#6b7280" stroke="#2a1a0a" stroke-width="1.2"/>
  <path d="M26 20h20" stroke="#4b5563" stroke-width="3"/>
  <circle cx="33" cy="22" r="1.1" fill="#2a1a0a"/>
  <circle cx="39" cy="22" r="1.1" fill="#2a1a0a"/>
</svg>
