<svg xmlns="http://www.w3.org/2000/svg" viewBox="0 0 72 96" fill="none" aria-hidden="true">
  <ellipse cx="36" cy="90" rx="16" ry="5" fill="#1c140c" opacity="0.3"/>
  <path d="M25 70c0-2 2-3 4-3h4v12c-6 1-8-2-8-9z" fill="#4b5563"/>
  <path d="M39 67h4c2 0 4 1 4 3 0 7-2 10-8 9V67z" fill="#4b5563"/>
  <rect x="27" y="52" width="7" height="18" rx="2" fill="#9aa3ad"/>
  <rect x="38" y="52" width="7" height="18" rx="2" fill="#8b95a0"/>
  <path d="M20 28c2-4 7-6 16-6s14 2 16 6l3 9c1 3 0 6-2 8l-4 15H23l-4-15c-2-2-3-5-2-8l3-9z" fill="#c0c8d0" stroke="#2a1a0a" stroke-width="1.3"/>
  <path d="M24 34h24M24 42h24M24 50h24" stroke="#7dd3fc" stroke-width="1.4" opacity="0.7"/>
  <rect x="23" y="50" width="26" height="4" rx="1" fill="#1e3a5f"/>
  <path d="M12 40l8 4v16l-8 3V40z" fill="#1e3a5f" stroke="#2a1a0a" stroke-width="1.1"/>
  <path d="M14 44h5M14 50h5M14 56h5" stroke="#7dd3fc" stroke-width="1"/>
  <rect x="52" y="30" width="3.5" height="32" rx="1" fill="#9aa3ad" stroke="#2a1a0a" stroke-width="0.8"/>
  <path d="M50 30h8l-2.5 5h-3L50 30z" fill="#e5e7eb" stroke="#2a1a0a" stroke-width="0.8"/>
  <circle cx="36" cy="20" r="10" fill="#c0c8d0" stroke="#2a1a0a" stroke-width="1.3"/>
  <rect x="30" y="16" width="12" height="8" rx="2" fill="#1e3a5f"/>
  <path d="M28 14h16v4H28z" fill="#6b7280"/>
  <circle cx="33" cy="22" r="1" fill="#111827"/>
  <circle cx="39" cy="22" r="1" fill="#111827"/>
</svg>
